<?xml version="1.0" encoding="UTF-8"?>
<svg xmlns="http://www.w3.org/2000/svg" xmlns:xlink="http://www.w3.org/1999/xlink" width="16px" height="16px" viewBox="0 0 16 16" version="1.1">
<g id="surface1">
<path style=" stroke:none;fill-rule:nonzero;fill:rgb(82.745099%,93.725491%,99.607843%);fill-opacity:1;" d="M 15.25 8 C 15.25 3.996094 12.003906 0.75 8 0.75 C 3.996094 0.75 0.75 3.996094 0.75 8 C 0.75 12.003906 3.996094 15.25 8 15.25 C 12.003906 15.25 15.25 12.003906 15.25 8 Z M 15.25 8 "/>
<path style=" stroke:none;fill-rule:nonzero;fill:rgb(50.196081%,85.490197%,100%);fill-opacity:1;" d="M 14 8 C 14 4.6875 11.3125 2 8 2 C 4.6875 2 2 4.6875 2 8 C 2 11.3125 4.6875 14 8 14 C 11.3125 14 14 11.3125 14 8 Z M 14 8 "/>
<path style=" stroke:none;fill-rule:nonzero;fill:rgb(98.039216%,78.431374%,31.37255%);fill-opacity:1;" d="M 5.90625 11.789062 L 5.84375 11.460938 C 5.789062 11.191406 5.921875 10.914062 6.171875 10.789062 L 6.410156 10.671875 C 6.617188 10.566406 6.75 10.351562 6.75 10.117188 C 6.75 9.777344 6.472656 9.5 6.132812 9.5 L 5.25 9.5 L 4.574219 9.164062 C 4.375 9.0625 4.136719 9.078125 3.949219 9.203125 L 3.5 9.5 L 2.191406 9.5 C 2.554688 10.902344 3.414062 12.125 4.609375 12.945312 L 5.578125 12.460938 C 5.828125 12.335938 5.960938 12.058594 5.90625 11.789062 "/>
<path style=" stroke:none;fill-rule:nonzero;fill:rgb(82.745099%,93.725491%,99.607843%);fill-opacity:1;" d="M 7 11.5 L 7.5 11.5 L 7.5 12 L 7 12 Z M 9 3.5 L 9.5 3.5 L 9.5 4 L 9 4 Z M 11 9.75 L 11.5 9.75 L 11.5 10.25 L 11 10.25 Z M 3.25 6.25 L 3.75 6.25 L 3.75 6.75 L 3.25 6.75 Z M 3.25 6.25 "/>
<path style=" stroke:none;fill-rule:nonzero;fill:rgb(98.039216%,78.431374%,31.37255%);fill-opacity:1;" d="M 9.785156 7.878906 L 10.03125 7.605469 L 9.523438 7.355469 C 9.238281 7.214844 9.160156 6.847656 9.359375 6.589844 L 9.597656 6.285156 C 9.636719 6.234375 9.6875 6.191406 9.742188 6.15625 L 9.921875 6.046875 C 10.035156 5.976562 10.171875 5.957031 10.304688 5.988281 C 10.433594 6.019531 10.546875 6.101562 10.613281 6.21875 L 10.753906 6.457031 C 10.878906 6.671875 11.140625 6.757812 11.367188 6.664062 L 11.71875 6.523438 C 11.949219 6.429688 12.210938 6.515625 12.335938 6.730469 L 12.570312 7.136719 C 12.667969 7.304688 12.660156 7.511719 12.550781 7.671875 L 12.222656 8.175781 C 12.085938 8.394531 11.804688 8.476562 11.566406 8.363281 L 11.332031 8.246094 L 10.832031 8.808594 C 10.722656 8.9375 10.53125 8.949219 10.402344 8.839844 L 9.804688 8.308594 C 9.679688 8.195312 9.671875 8 9.785156 7.878906 "/>
<path style=" stroke:none;fill-rule:nonzero;fill:rgb(14.509805%,69.411767%,98.039216%);fill-opacity:1;" d="M 9.5 10 C 9.5 10.414062 8.75 11.25 8.75 11.25 C 8.75 11.25 8 10.414062 8 10 C 8 9.585938 8.335938 9.25 8.75 9.25 C 9.164062 9.25 9.5 9.585938 9.5 10 M 5.492188 8.648438 C 5.492188 9.253906 4.507812 10.480469 4.507812 10.480469 C 4.507812 10.480469 3.523438 9.253906 3.523438 8.648438 C 3.523438 8.042969 3.964844 7.550781 4.507812 7.550781 C 5.050781 7.550781 5.492188 8.042969 5.492188 8.648438 M 12 5.347656 C 12 5.953125 11.015625 7.175781 11.015625 7.175781 C 11.015625 7.175781 10.03125 5.953125 10.03125 5.347656 C 10.03125 4.742188 10.472656 4.25 11.015625 4.25 C 11.558594 4.25 12 4.742188 12 5.347656 "/>
<path style=" stroke:none;fill-rule:nonzero;fill:rgb(98.039216%,78.431374%,31.37255%);fill-opacity:1;" d="M 5.089844 3.933594 L 5.867188 3.347656 C 5.949219 3.285156 6.058594 3.269531 6.15625 3.300781 L 7.347656 3.699219 C 7.441406 3.730469 7.515625 3.808594 7.546875 3.90625 L 8.203125 6.09375 C 8.230469 6.191406 8.210938 6.296875 8.148438 6.378906 L 7.492188 7.195312 C 7.433594 7.269531 7.34375 7.3125 7.25 7.3125 C 7.15625 7.3125 7.066406 7.269531 7.007812 7.195312 L 6.328125 6.347656 C 6.277344 6.285156 6.207031 6.242188 6.128906 6.234375 L 4.84375 6.050781 C 4.753906 6.035156 4.675781 5.988281 4.628906 5.914062 C 4.578125 5.839844 4.5625 5.75 4.585938 5.664062 L 4.972656 4.109375 C 4.992188 4.039062 5.03125 3.976562 5.089844 3.933594 "/>
<path style=" stroke:none;fill-rule:nonzero;fill:rgb(14.509805%,69.411767%,98.039216%);fill-opacity:1;" d="M 9.25 13.5 L 8.140625 13.011719 C 8.050781 12.953125 8 12.855469 8 12.75 C 8 12.644531 8.050781 12.546875 8.140625 12.488281 L 9.089844 12.105469 C 9.195312 12.035156 9.316406 12 9.4375 12 L 10.273438 12 L 12.5 10.5 L 13.25 10.5 L 12.25 12.25 L 13.75 12.5 L 14.75 11.75 L 15.25 11.75 L 14.75 13.5 Z M 6.75 4.25 L 7.859375 3.761719 C 7.949219 3.703125 8 3.605469 8 3.5 C 8 3.394531 7.949219 3.296875 7.859375 3.238281 L 6.910156 2.855469 C 6.804688 2.785156 6.683594 2.75 6.5625 2.75 L 5.726562 2.75 L 3.5 1.25 L 2.75 1.25 L 3.75 3 L 2.25 3.25 L 1.25 2.5 L 0.75 2.5 L 1.25 4.25 Z M 6.75 4.25 "/>
<path style=" stroke:none;fill-rule:nonzero;fill:rgb(50.196081%,85.490197%,100%);fill-opacity:1;" d="M 1 8 C 1 6.867188 1.273438 5.753906 1.800781 4.75 L 1.242188 4.75 C -0.00390625 7.335938 0.339844 10.40625 2.125 12.65625 L 2.515625 12.34375 C 1.53125 11.113281 0.996094 9.578125 1 8 M 12.75 1.25 L 12.75 2.199219 C 10.496094 0.351562 7.375 -0.0234375 4.75 1.242188 L 4.75 1.800781 C 7.40625 0.40625 10.65625 0.863281 12.828125 2.9375 C 12.898438 3.003906 13.007812 3.023438 13.097656 2.984375 C 13.191406 2.945312 13.25 2.855469 13.25 2.753906 L 13.25 1.25 Z M 8 15 C 6.085938 15 4.253906 14.214844 2.9375 12.828125 C 2.863281 12.753906 2.757812 12.730469 2.660156 12.769531 C 2.566406 12.804688 2.503906 12.898438 2.503906 13 L 2.5 14.75 L 3 14.75 L 3.003906 13.589844 C 5.496094 15.824219 9.171875 16.128906 12 14.339844 L 12 13.742188 C 10.828125 14.558594 9.429688 15 8 15 M 13.660156 3.085938 L 13.285156 3.414062 C 14.390625 4.6875 15 6.316406 15 8 C 15.003906 9.230469 14.679688 10.4375 14.0625 11.5 L 14.632812 11.5 C 15.207031 10.421875 15.503906 9.21875 15.5 8 C 15.5 6.195312 14.847656 4.449219 13.660156 3.085938 "/>
</g>
</svg>
